<svg id="visual" viewBox="0 0 900 200" width="900" height="200" xmlns="http://www.w3.org/2000/svg" xmlns:xlink="http://www.w3.org/1999/xlink" version="1.1"><path d="M0 126L21.5 131C43 136 86 146 128.8 152.3C171.7 158.7 214.3 161.3 257.2 158.3C300 155.3 343 146.7 385.8 142.8C428.7 139 471.3 140 514.2 144.2C557 148.3 600 155.7 642.8 159C685.7 162.3 728.3 161.7 771.2 158.3C814 155 857 149 878.5 146L900 143L900 201L878.5 201C857 201 814 201 771.2 201C728.3 201 685.7 201 642.8 201C600 201 557 201 514.2 201C471.3 201 428.7 201 385.8 201C343 201 300 201 257.2 201C214.3 201 171.7 201 128.8 201C86 201 43 201 21.5 201L0 201Z" fill="#87cefa" stroke-linecap="round" stroke-linejoin="miter"></path></svg>