<?xml version="1.0" standalone="no"?>
<!DOCTYPE svg PUBLIC "-//W3C//DTD SVG 20010904//EN"
 "http://www.w3.org/TR/2001/REC-SVG-20010904/DTD/svg10.dtd">
<svg version="1.0" xmlns="http://www.w3.org/2000/svg"
 width="317.000000pt" height="317.000000pt" viewBox="0 0 317.000000 317.000000"
 preserveAspectRatio="xMidYMid meet">
<metadata>
Created by potrace 1.14, written by Peter Selinger 2001-2017
</metadata>
<g transform="translate(0.000000,317.000000) scale(0.100000,-0.100000)"
fill="#000000" stroke="none">
<path d="M344 2275 c-32 -14 -73 -57 -90 -95 -14 -33 -17 -101 -6 -131 7 -17
5 -36 -6 -62 -25 -64 13 -69 76 -9 13 12 27 20 32 17 5 -3 11 -1 15 5 3 5 -1
10 -10 10 -22 0 -12 31 31 91 31 43 61 66 71 55 2 -2 -17 -46 -43 -98 -54
-108 -55 -139 -4 -113 18 9 40 35 54 63 37 74 106 139 106 102 0 -6 -9 -29
-20 -50 -11 -22 -18 -40 -14 -40 4 0 1 -7 -6 -15 -16 -19 -5 -65 16 -65 22 0
66 25 88 49 24 27 36 27 29 1 -10 -38 51 -66 77 -35 11 14 15 14 37 0 32 -21
49 -14 112 45 29 28 55 50 57 50 3 0 -22 -48 -51 -98 -21 -37 -59 -88 -73 -99
-24 -20 -8 -40 27 -35 38 5 64 37 114 137 36 73 83 129 99 119 5 -3 -2 -21
-16 -39 -28 -36 -34 -80 -13 -88 16 -6 57 10 82 32 35 32 42 32 37 1 -3 -21 1
-31 17 -39 22 -12 50 0 95 41 26 24 40 23 33 -2 -8 -30 28 -52 59 -38 13 6 24
15 24 20 0 4 6 8 13 8 14 1 52 49 44 56 -3 3 -17 -2 -30 -11 -27 -18 -29 -12
-10 35 6 14 9 28 6 33 -2 4 1 7 7 7 6 0 9 4 6 9 -3 5 1 14 9 21 8 7 15 18 15
25 0 7 7 25 15 41 20 38 4 54 -33 34 -17 -10 -41 -42 -62 -85 -33 -66 -81
-125 -101 -125 -23 0 -5 45 31 77 22 20 40 43 40 51 0 9 -7 6 -20 -9 -19 -23
-19 -23 -20 -3 0 11 4 24 10 30 5 5 12 25 15 45 4 27 1 41 -15 58 -41 49 -138
-2 -155 -81 -4 -15 -12 -28 -18 -28 -7 0 -23 -9 -37 -20 -33 -26 -40 -25 -40
4 0 13 -6 29 -14 36 -12 9 -18 7 -33 -10 -10 -12 -24 -28 -30 -35 -7 -8 -13
-18 -13 -24 0 -6 -4 -11 -8 -11 -5 0 -15 -11 -22 -25 -7 -14 -15 -23 -18 -21
-2 2 -12 -4 -23 -15 -34 -34 -39 -10 -10 44 33 62 34 67 14 90 -16 16 -17 16
-35 -2 -10 -12 -27 -18 -39 -16 -33 7 -80 -21 -119 -70 -19 -24 -39 -44 -44
-44 -5 -1 -18 -8 -28 -18 -33 -29 -31 -6 6 71 20 41 36 81 36 89 0 34 -59 28
-100 -10 -34 -32 -39 -29 -26 18 8 33 8 42 -4 49 -25 16 -61 -2 -111 -54 -19
-20 -19 -19 -13 42 4 34 3 62 -2 63 -5 0 -16 2 -25 4 -8 1 -29 -3 -45 -10z m2
-67 c-3 -18 -12 -36 -19 -40 -6 -4 -9 -8 -4 -8 4 0 -5 -23 -19 -51 -23 -43
-29 -48 -41 -37 -11 12 -11 21 1 60 7 26 11 50 7 54 -3 4 0 4 7 0 7 -4 12 -2
12 5 0 18 31 49 48 49 11 0 13 -8 8 -32z m899 6 c0 -10 -5 -30 -12 -44 -7 -14
-13 -30 -13 -37 0 -6 -7 -19 -16 -28 -32 -31 -55 18 -38 81 6 21 52 56 69 50
6 -1 10 -11 10 -22z m-432 -147 c-19 -38 -52 -69 -65 -61 -10 6 28 73 51 91
25 19 32 4 14 -30z m371 5 c7 -12 -6 -28 -41 -46 -40 -20 -49 -20 -33 -1 7 8
9 15 6 15 -4 0 1 13 10 29 14 24 21 28 35 20 10 -5 20 -13 23 -17z"/>
<path d="M1600 2208 c-32 -22 -61 -48 -64 -57 -5 -15 -9 -50 -21 -156 -3 -27
-8 -68 -10 -90 -3 -22 -7 -67 -10 -100 -13 -137 -21 -178 -34 -170 -5 2 -30
-23 -57 -58 -26 -34 -51 -64 -54 -67 -3 -3 -34 -41 -70 -85 -36 -44 -73 -89
-82 -99 -26 -29 -22 -37 15 -31 55 9 81 25 98 58 15 30 96 86 127 87 24 0 11
-36 -23 -63 -43 -34 -44 -56 -5 -85 46 -35 148 -53 285 -53 l122 1 45 -36 c25
-19 55 -36 67 -37 11 -1 23 -7 25 -13 5 -13 48 -42 245 -164 l133 -83 284 -1
c243 -1 286 1 294 14 16 25 11 51 -15 86 -14 18 -25 37 -25 42 0 5 -9 17 -20
27 -11 10 -20 24 -20 31 0 8 -8 13 -17 12 -39 -3 -52 2 -47 17 4 8 10 12 15 9
5 -3 9 -2 9 2 0 7 -71 126 -80 134 -3 3 -28 39 -55 80 -28 41 -53 77 -56 80
-3 3 -8 10 -10 15 -7 18 -140 218 -154 232 -16 15 -39 18 -30 3 3 -5 1 -10 -5
-10 -6 0 -9 -4 -6 -8 2 -4 -4 -13 -15 -20 -26 -16 -34 3 -19 43 6 16 7 32 2
37 -10 10 -188 15 -198 6 -3 -4 7 -20 23 -36 53 -57 64 -74 59 -88 -9 -24 -31
-15 -67 27 -19 22 -47 54 -64 70 -32 31 -28 30 -187 33 -42 0 -79 3 -81 6 -3
3 -8 32 -12 65 -5 57 -7 74 -20 170 -2 22 -7 65 -9 95 -6 74 -9 80 -61 115
-24 17 -45 33 -45 36 0 4 -9 9 -20 12 -13 3 -41 -9 -80 -35z m751 -679 c18
-34 -5 -69 -40 -60 -22 6 -25 12 -22 37 5 46 42 60 62 23z m-333 -166 c4 -10
7 -24 6 -30 -1 -7 -2 -17 -3 -21 0 -4 -12 -9 -26 -10 -31 -2 -53 41 -34 64 16
19 47 17 57 -3z m142 -167 c0 -2 -9 -6 -20 -9 -11 -3 -18 -1 -14 4 5 9 34 13
34 5z m338 -23 c20 -9 39 -17 42 -18 3 0 21 -9 40 -19 19 -11 52 -18 72 -18
26 1 38 -2 38 -12 0 -13 -86 -32 -194 -43 -38 -4 -47 -2 -44 8 3 8 18 15 34
17 16 1 36 3 45 4 27 3 11 22 -43 48 -82 40 -73 70 10 33z"/>
<path d="M1062 1738 c-18 -5 -44 -19 -59 -31 -29 -25 -46 -49 -157 -224 -28
-43 -53 -80 -56 -83 -3 -3 -28 -40 -55 -82 -27 -43 -53 -78 -58 -78 -6 0 -7
-3 -4 -7 4 -3 2 -12 -4 -20 -6 -7 -8 -13 -4 -13 5 0 -1 -8 -11 -17 -25 -23
-84 -107 -108 -153 -9 -19 -24 -46 -31 -60 -13 -22 -12 -27 5 -44 18 -18 34
-20 202 -19 164 0 236 4 333 18 17 2 55 7 85 10 30 3 74 7 98 10 23 2 47 7 52
10 5 3 11 1 14 -4 6 -9 -37 -25 -66 -24 -10 0 -18 -3 -18 -8 0 -5 -8 -6 -17
-3 -11 4 -14 3 -6 -3 6 -4 103 -7 215 -7 267 2 246 0 217 23 -31 23 -85 51
-91 46 -10 -10 -71 -14 -86 -6 -15 9 -14 11 6 12 12 1 27 3 32 4 6 1 15 3 21
4 10 1 -14 31 -25 31 -3 0 -34 22 -69 48 -54 41 -69 48 -103 46 -21 -1 -39 -3
-39 -4 0 -2 -34 -9 -70 -14 -16 -3 -32 -5 -35 -7 -3 -1 -8 -1 -12 0 -4 0 -31
-4 -60 -9 -63 -11 -136 -22 -160 -23 -10 -1 -18 -4 -18 -7 0 -3 -17 -6 -38 -7
-20 0 -58 -4 -84 -7 -26 -3 -50 -1 -53 4 -4 6 -3 10 2 11 4 1 19 2 33 4 29 3
95 13 130 20 42 8 133 24 175 30 22 3 67 10 100 15 33 5 74 10 91 12 40 3 36
14 -28 69 -58 50 -78 63 -78 52 0 -4 -17 -8 -38 -9 -20 -1 -50 -4 -67 -8 -16
-3 -50 -9 -75 -11 -25 -3 -52 -7 -60 -10 -42 -12 -150 -16 -150 -6 0 6 3 11 8
12 4 0 16 3 27 5 11 3 34 7 50 9 17 2 30 5 30 6 0 1 9 3 20 4 11 2 34 6 50 9
25 5 69 13 110 19 11 2 27 19 65 68 14 18 34 43 45 55 11 12 38 44 60 70 73
88 110 129 123 137 6 4 12 12 12 18 0 5 13 22 28 37 20 19 28 36 25 52 -2 13
-5 25 -7 27 -7 8 -335 8 -364 1z"/>
<path d="M1274 1266 c-24 -10 -26 -14 -13 -22 16 -9 110 -86 135 -111 7 -7 17
-13 22 -13 5 0 17 -9 28 -21 29 -32 214 -153 281 -184 30 -14 169 -15 191 -1
16 10 153 15 147 6 -3 -5 18 -8 50 -7 30 1 55 -1 55 -5 0 -4 7 -5 15 -1 22 8
11 15 -27 17 -22 1 -33 7 -33 16 0 19 -8 26 -85 79 -36 25 -67 47 -70 50 -3 4
-12 11 -21 16 -9 6 -51 34 -94 63 l-79 52 -125 1 c-69 0 -135 2 -146 5 -11 2
-33 6 -48 8 -16 3 -56 18 -91 34 -55 26 -66 28 -92 18z"/>
</g>
</svg>
